<?xml version="1.0" encoding="UTF-8"?><svg id="Layer_1" xmlns="http://www.w3.org/2000/svg" xmlns:xlink="http://www.w3.org/1999/xlink" viewBox="0 0 1039.16 292.26"><defs><style>.cls-1{stroke:#fff;}.cls-1,.cls-2{fill:#fff;}.cls-1,.cls-3{stroke-miterlimit:10;stroke-width:5px;}.cls-4{fill:url(#linear-gradient-4);}.cls-5{fill:url(#linear-gradient-3);}.cls-6{fill:url(#linear-gradient-5);}.cls-7{fill:#0051ad;}.cls-3{fill:none;stroke:url(#linear-gradient-2);}.cls-8{fill:url(#linear-gradient-7);}.cls-9{fill:url(#linear-gradient-6);}.cls-10{fill:url(#linear-gradient);}</style><linearGradient id="linear-gradient" x1="360.39" y1="135.6" x2="754.6" y2="135.6" gradientUnits="userSpaceOnUse"><stop offset="0" stop-color="#f7ad35"/><stop offset=".14" stop-color="#f69c3c"/><stop offset=".41" stop-color="#f4714f"/><stop offset=".78" stop-color="#f12c6e"/><stop offset="1" stop-color="#ef0081"/></linearGradient><linearGradient id="linear-gradient-2" x1="360.39" y1="135.6" x2="754.6" y2="135.6" gradientUnits="userSpaceOnUse"><stop offset="0" stop-color="#f7ad35"/><stop offset=".14" stop-color="#f69c3c"/><stop offset=".41" stop-color="#f4714f"/><stop offset=".78" stop-color="#f12c6e"/><stop offset="1" stop-color="#ef0081"/></linearGradient><linearGradient id="linear-gradient-3" x1="134.58" y1="92.05" x2="166.32" y2="92.05" gradientTransform="translate(0 299.26) scale(1 -1)" gradientUnits="userSpaceOnUse"><stop offset="0" stop-color="#ef0081"/><stop offset=".1" stop-color="#de0684"/><stop offset=".31" stop-color="#b3148c"/><stop offset=".6" stop-color="#6d2c99"/><stop offset=".95" stop-color="#0d4dab"/><stop offset="1" stop-color="#0051ad"/></linearGradient><linearGradient id="linear-gradient-4" x1="152.34" y1="87.26" x2="288.82" y2="87.26" gradientTransform="translate(0 299.26) scale(1 -1)" xlink:href="#linear-gradient-2"/><linearGradient id="linear-gradient-5" x1="289.85" y1="158.53" x2="225.83" y2="159.08" gradientTransform="translate(0 299.26) scale(1 -1)" gradientUnits="userSpaceOnUse"><stop offset="0" stop-color="#ef0081"/><stop offset=".1" stop-color="#de0983"/><stop offset=".31" stop-color="#b32188"/><stop offset=".6" stop-color="#6d4990"/><stop offset=".95" stop-color="#0d7e9b"/><stop offset="1" stop-color="#00859c"/></linearGradient><linearGradient id="linear-gradient-6" x1="0" y1="216.84" x2="172.22" y2="216.84" xlink:href="#linear-gradient-3"/><linearGradient id="linear-gradient-7" x1="114.36" y1="238.59" x2="299.7" y2="238.59" gradientTransform="translate(0 299.26) scale(1 -1)" xlink:href="#linear-gradient-2"/></defs><path d="M382.76,76.49c.21,6.16-4.31,11.08-11.49,11.08-6.36,0-10.88-4.93-10.88-11.08s4.72-11.29,11.29-11.29,11.08,4.93,11.08,11.29ZM362.65,203.73v-99.32h18.06v99.32h-18.06Z"/><path d="M410.66,131.29c0-10.26-.21-18.67-.82-26.88h16.01l1.03,16.42h.41c4.93-9.44,16.42-18.67,32.83-18.67,13.75,0,35.09,8.21,35.09,42.27v59.31h-18.06v-57.26c0-16.01-5.95-29.35-22.98-29.35-11.9,0-21.14,8.41-24.22,18.47-.82,2.26-1.23,5.34-1.23,8.41v59.72h-18.06v-72.44Z"/><path d="M614.44,153.24c0,36.73-25.45,52.74-49.46,52.74-26.88,0-47.61-19.7-47.61-51.1,0-33.25,21.75-52.74,49.25-52.74s47.82,20.73,47.82,51.1ZM535.64,154.27c0,21.75,12.52,38.17,30.17,38.17s30.17-16.21,30.17-38.58c0-16.83-8.41-38.17-29.76-38.17s-30.58,19.7-30.58,38.58Z"/><path d="M642.76,104.4l19.5,55.82c3.28,9.03,5.95,17.24,8,25.45h.62c2.26-8.21,5.13-16.42,8.41-25.45l19.29-55.82h18.88l-38.99,99.32h-17.24l-37.76-99.32h19.29Z"/><path d="M754.6,76.49c.21,6.16-4.31,11.08-11.49,11.08-6.36,0-10.88-4.93-10.88-11.08s4.72-11.29,11.29-11.29,11.08,4.93,11.08,11.29ZM734.48,203.73v-99.32h18.06v99.32h-18.06Z"/><path class="cls-10" d="M382.76,76.49c.21,6.16-4.31,11.08-11.49,11.08-6.36,0-10.88-4.93-10.88-11.08s4.72-11.29,11.29-11.29,11.08,4.93,11.08,11.29ZM362.65,203.73v-99.32h18.06v99.32h-18.06Z"/><path class="cls-10" d="M410.66,131.29c0-10.26-.21-18.67-.82-26.88h16.01l1.03,16.42h.41c4.93-9.44,16.42-18.67,32.83-18.67,13.75,0,35.09,8.21,35.09,42.27v59.31h-18.06v-57.26c0-16.01-5.95-29.35-22.98-29.35-11.9,0-21.14,8.41-24.22,18.47-.82,2.26-1.23,5.34-1.23,8.41v59.72h-18.06v-72.44Z"/><path class="cls-10" d="M614.44,153.24c0,36.73-25.45,52.74-49.46,52.74-26.88,0-47.61-19.7-47.61-51.1,0-33.25,21.75-52.74,49.25-52.74s47.82,20.73,47.82,51.1ZM535.64,154.27c0,21.75,12.52,38.17,30.17,38.17s30.17-16.21,30.17-38.58c0-16.83-8.41-38.17-29.76-38.17s-30.58,19.7-30.58,38.58Z"/><path class="cls-10" d="M642.76,104.4l19.5,55.82c3.28,9.03,5.95,17.24,8,25.45h.62c2.26-8.21,5.13-16.42,8.41-25.45l19.29-55.82h18.88l-38.99,99.32h-17.24l-37.76-99.32h19.29Z"/><path class="cls-10" d="M754.6,76.49c.21,6.16-4.31,11.08-11.49,11.08-6.36,0-10.88-4.93-10.88-11.08s4.72-11.29,11.29-11.29,11.08,4.93,11.08,11.29ZM734.48,203.73v-99.32h18.06v99.32h-18.06Z"/><path class="cls-3" d="M382.76,76.49c.21,6.16-4.31,11.08-11.49,11.08-6.36,0-10.88-4.93-10.88-11.08s4.72-11.29,11.29-11.29,11.08,4.93,11.08,11.29ZM362.65,203.73v-99.32h18.06v99.32h-18.06Z"/><path class="cls-3" d="M410.66,131.29c0-10.26-.21-18.67-.82-26.88h16.01l1.03,16.42h.41c4.93-9.44,16.42-18.67,32.83-18.67,13.75,0,35.09,8.21,35.09,42.27v59.31h-18.06v-57.26c0-16.01-5.95-29.35-22.98-29.35-11.9,0-21.14,8.41-24.22,18.47-.82,2.26-1.23,5.34-1.23,8.41v59.72h-18.06v-72.44Z"/><path class="cls-3" d="M614.44,153.24c0,36.73-25.45,52.74-49.46,52.74-26.88,0-47.61-19.7-47.61-51.1,0-33.25,21.75-52.74,49.25-52.74s47.82,20.73,47.82,51.1ZM535.64,154.27c0,21.75,12.52,38.17,30.17,38.17s30.17-16.21,30.17-38.58c0-16.83-8.41-38.17-29.76-38.17s-30.58,19.7-30.58,38.58Z"/><path class="cls-3" d="M642.76,104.4l19.5,55.82c3.28,9.03,5.95,17.24,8,25.45h.62c2.26-8.21,5.13-16.42,8.41-25.45l19.29-55.82h18.88l-38.99,99.32h-17.24l-37.76-99.32h19.29Z"/><path class="cls-3" d="M754.6,76.49c.21,6.16-4.31,11.08-11.49,11.08-6.36,0-10.88-4.93-10.88-11.08s4.72-11.29,11.29-11.29,11.08,4.93,11.08,11.29ZM734.48,203.73v-99.32h18.06v99.32h-18.06Z"/><path class="cls-7" d="M213.7,289.43c-1.33-1.77-2.56-3.6-3.69-5.5-7.25-12.17-9.92-25.69-8.54-38.38-14.32-4.09-26.52-10.82-35.15-19.3h-.86c-5.44.03-10.83-1.08-15.82-3.26,8.74,25.84,22.99,49.47,41.76,69.26,6.04-1.97,12.36-2.97,18.71-2.95,1.2,0,2.4.03,3.59.12Z"/><path class="cls-5" d="M153.2,188.16c-.56,2.55-.85,5.16-.86,7.77,0,11.25,5.16,21.66,13.98,30.33h-.86c-17.05.03-30.88-10.26-30.88-22.98.03-3.36,1-6.65,2.8-9.49l15.82-5.62Z"/><path class="cls-4" d="M225.83,177.29c-25.84,0-50.39,3.87-72.63,10.88-.56,2.55-.85,5.16-.86,7.77,0,22.58,20.77,41.91,50.27,49.96.74.19,1.49.34,2.24.43,2.15.31,4.32.43,6.48.37,33.74-.95,62.71-21.38,76.63-50.67,2.09-4.4.22-9.66-4.18-11.75-.58-.28-1.19-.49-1.82-.63-12.53-2.91-25.27-4.82-38.1-5.71-5.92-.43-11.93-.65-18.04-.65Z"/><path class="cls-7" d="M264.64,97.4c-15.12-3.17-30.52-4.75-45.97-4.73-70.33,0-130.15,31.86-152.15,76.26-3.36,6.83-1.83,15.05,3.75,20.22,5.6,5.2,11.69,9.84,18.19,13.86l3.69,2.18c6.67,3.81,14.84,3.66,21.51-.09,30.97-17.42,69.87-27.81,112.18-27.81,6.08,0,12.1.22,18.04.65,3.55-2.88,6.83-6.09,9.77-9.59,18.01-21.26,21.54-49.47,11-70.95Z"/><path class="cls-6" d="M299.7,108.09c-11.34-4.63-23.07-8.2-35.06-10.69,10.54,21.48,7.01,49.68-11,70.95-2.94,3.5-6.22,6.71-9.77,9.59,12.24.85,24.41,2.62,36.38,5.32,14.07,3.16,27.28-7.62,27.62-22.03.03-1.17.03-2.34.03-3.5,0-16.88-2.76-33.64-8.2-49.62Z"/><path class="cls-9" d="M145.36,0C142.5,0,139.65.09,136.82.25h-.03l-.89.06h0l-1.84.12h0l-1.32.03-1.66.15-1.66.15,1.38-.12-1.38.12h0l-.68.06-2.98.31h-.12l-.77.09h-.12l-3.32.46-.61.06-.52.09-1.17.18-2.21.34s0,.03-.03.03l-1.17.22-1.38.25-3.35.68-1.2.25-.58.12h-.03l-3.81.89h0c-10.08,2.48-19.9,5.91-29.34,10.23h0c-1.9.86-3.78,1.75-5.62,2.7l-.77.4c-1.5.78-3,1.58-4.52,2.4l-1.47.83c-1.38.77-2.77,1.6-4.12,2.43l-.92.52c-3.41,2.09-6.73,4.3-9.99,6.64l-.89.68c-1.29.92-2.55,1.9-3.81,2.86l-1.29,1.01c-1.17.92-2.3,1.87-3.44,2.83l-1.17.95c-1.47,1.26-2.92,2.55-4.33,3.84h-.03c-1.47,1.32-2.89,2.7-4.3,4.09l-.98,1.01c-1.04,1.04-2.06,2.12-3.07,3.16l-1.26,1.35-2.8,3.13-1.11,1.26c-1.23,1.44-2.4,2.89-3.56,4.33l-.12.15c-1.19,1.52-2.36,3.05-3.5,4.61l-.98,1.38-2.37,3.35-1.11,1.72c-.74,1.14-2.89,4.98-3.63,6.79-2.48,6.08-4.01,12.51-4.55,19.05C.12,100.81,0,103.11,0,104.9c0,14.68,3.09,29.19,9.09,42.59,3.4,7.54,10.15,13.05,18.22,14.87,13.99,3.18,28.5,3.31,42.55.4,10.05-16.99,25.78-31.89,45.47-43.57h0c-.64-5-.97-10.04-.98-15.09,0-1.17,0-2.37.03-3.53.03-.37.03-.74.06-1.11s.06-1.63.12-2.43.06-.83.06-1.23l.18-2.3c.03-.4.09-.77.12-1.17s.15-1.57.25-2.34.09-.74.15-1.11.22-1.57.31-2.34l.18-1.04c.12-.8.25-1.6.4-2.4l.18-.95c.15-.83.31-1.66.49-2.46l.18-.83c.18-.86.37-1.72.58-2.58l.18-.68c.22-.89.46-1.78.71-2.67.04-.19.09-.37.15-.55.25-.92.52-1.84.8-2.77l.15-.43c.28-.95.61-1.9.92-2.86l.09-.28c.34-1.01.71-2,1.08-2.98.03-.06.03-.09.06-.12,1.44-3.88,3.09-7.67,4.95-11.37.12.09.12.06.06-.06,8.29-16.42,20.17-30.76,34.75-41.97,3.41-2.66,6.96-5.13,10.63-7.4C163.34.72,154.36,0,145.36,0Z"/><path class="cls-8" d="M218.67,92.67c29.53,0,57.21,5.62,81.02,15.42C280.98,53.31,232.13,11.83,172.22,2.15c-3.67,2.28-7.22,4.75-10.63,7.4-14.59,11.22-26.46,25.57-34.75,42,.06.12.06.15-.06.06-1.85,3.7-3.51,7.49-4.95,11.37-.03.03-.03.06-.06.12-.37.98-.74,1.97-1.08,2.98l-.09.28c-.31.95-.65,1.9-.92,2.86l-.15.43c-.28.92-.55,1.84-.8,2.77-.07.18-.12.37-.15.55-.25.89-.49,1.78-.71,2.67l-.18.68c-.22.86-.4,1.72-.58,2.58l-.18.83c-.18.8-.34,1.63-.49,2.46l-.18.95c-.15.8-.28,1.6-.4,2.4l-.18,1.04c-.09.77-.22,1.57-.31,2.34s-.09.74-.15,1.11-.15,1.57-.25,2.34-.09.77-.12,1.17l-.18,2.3c0,.4-.06.8-.06,1.23s-.09,1.63-.12,2.43-.03.74-.06,1.11c-.03,1.17-.03,2.37-.03,3.53,0,5.03.33,10.06.98,15.06,27.99-16.53,64-26.52,103.33-26.52Z"/><path class="cls-1" d="M803.1,75.88v28.52h25.86v13.75h-25.86v53.56c0,12.31,3.49,19.29,13.54,19.29,4.72,0,8.21-.62,10.47-1.23l.82,13.54c-3.49,1.44-9.03,2.46-16.01,2.46-8.41,0-15.19-2.67-19.5-7.59-5.13-5.33-6.98-14.16-6.98-25.86v-54.18h-15.39v-13.75h15.39v-23.81l17.65-4.72Z"/><path class="cls-1" d="M858.1,157.35c.41,24.42,16.01,34.48,34.07,34.48,12.93,0,20.73-2.26,27.5-5.13l3.08,12.93c-6.36,2.87-17.24,6.16-33.04,6.16-30.58,0-48.84-20.11-48.84-50.07s17.65-53.56,46.58-53.56c32.42,0,41.04,28.52,41.04,46.79,0,3.69-.41,6.57-.62,8.41h-69.77ZM911.05,144.42c.21-11.49-4.72-29.35-25.04-29.35-18.26,0-26.27,16.83-27.7,29.35h52.74Z"/><path class="cls-1" d="M968.71,149.96h.41c2.46-3.49,5.95-7.8,8.82-11.29l29.14-34.27h21.75l-38.38,40.84,43.71,58.49h-21.96l-34.27-47.61-9.23,10.26v37.35h-17.85V58.02h17.85v91.94Z"/><path class="cls-2" d="M281.96,230.29l-5.12,26.89c-.33,1.64-.54,3.37-.54,5.16.04,2.56,1.55,4.85,4.91,4.85,3.84,0,6.32-2.53,7.71-9.85l5.15-27.05h11.08l-4.96,26.17c-2.49,13.02-7.81,20.13-20.29,20.13-9.64,0-14.63-4.93-14.63-13.86,0-1.99.3-4.38.74-6.8l4.86-25.63h11.08Z"/><path class="cls-2" d="M303.79,275.9l4.12-22.17c.78-4.16,1.32-7.95,1.79-11.12h9.45l-.41,4.83h.1c2.77-3.83,6.49-5.52,10.62-5.52,4.71,0,6.88,2.99,7.25,5.52,2.71-3.67,6.59-5.52,10.59-5.52,5.26,0,7.6,3.44,7.6,8.58,0,1.32-.3,4.13-.67,6.12l-3.62,19.28h-10.77l3.37-18.16c.27-1.5.47-2.92.47-4.2,0-1.61-.79-2.78-2.3-2.78-2.42,0-4.84,3.56-6.05,9.98l-2.89,15.16h-10.64l3.41-18.16c.27-1.41.47-2.79.47-3.96,0-1.82-.62-3.02-2.12-3.02-2.43,0-5.08,3.69-6.23,9.98l-2.79,15.16h-10.77Z"/><path class="cls-2" d="M377.83,275.9c.1-1.87.21-3.73.27-5.6h-.2c-2.69,4.64-6.57,6.28-9.85,6.28-5.78,0-9.49-4.57-9.49-11.36,0-10.76,6.36-23.31,22.85-23.31,4.15,0,8.47.82,11.27,1.74l-3.58,17.7c-.71,3.62-1.39,10.42-1.32,14.54h-9.95ZM380.33,250.4c-.71-.13-1.46-.2-1.98-.2-5.2,0-8.45,8.28-8.45,12.84,0,2.87,1.02,4.62,3.01,4.62s4.48-2.25,5.85-9.49l1.57-7.76Z"/><path class="cls-2" d="M406.72,266.44c1.85.89,5.07,2.1,8.15,2.07,2.24-.03,3.25-1,3.25-2.27s-.93-2.22-3.71-3.73c-3.61-1.97-6.47-4.81-6.47-8.72,0-7.04,6.07-11.86,14.94-11.86,3.93,0,6.83.72,8.48,1.61l-2.46,7.78c-1.34-.61-3.53-1.3-6.12-1.3-2.26,0-3.74.8-3.74,2.33,0,1.04,1.1,1.99,3.37,3.14,3.77,2.15,7.1,4.9,7.1,9.08,0,7.73-6.34,11.96-15.52,11.96-4.1,0-7.94-1.06-9.83-2.41l2.58-7.68Z"/><path class="cls-2" d="M466.36,255.11c0,12.44-8.01,21.48-19.19,21.48-8.77,0-13.55-5.76-13.55-13.14,0-11.86,7.8-21.53,19.41-21.53,8.99,0,13.33,6.28,13.33,13.18ZM444.93,263.22c0,2.82,1.06,5,3.69,5,4.28,0,6.44-8.27,6.44-13.44,0-2.44-.97-4.5-3.58-4.5-4.37,0-6.58,8.44-6.55,12.93ZM465.29,228.44l-8.67,10.25h-7.9l6.23-10.25h10.34Z"/><path class="cls-2" d="M494.18,242.61l.4,13.03c.09,4.44.3,6.67.39,9.62h.21c.92-2.85,1.85-5.22,3.51-9.48l5.15-13.17h12.04l-17.47,33.29h-11.29l-4.45-33.29h11.52Z"/><path class="cls-2" d="M540.63,274.16c-4.07,1.89-8.61,2.36-12.24,2.36-9.48,0-14.24-5.2-14.24-13.89,0-10.09,6.76-20.71,18.89-20.71,6.85,0,11.53,4.13,11.56,10.35,0,8.69-7.52,12.11-19.95,11.7.11.81.45,1.65,1.16,2.32,1.13,1.02,2.98,1.69,5.46,1.69,3.26,0,6.08-.64,8.78-1.91l.58,8.08ZM531.72,250.16c-3.64,0-5.64,3.11-6.04,5.77,6.15.13,8.78-1.1,8.78-3.38,0-1.37-.96-2.38-2.73-2.38Z"/><path class="cls-2" d="M544.85,269.03l8.5-9.78c2.65-3,4.34-4.64,7.57-7.5l.1-.13h-11.84l1.77-9.01h24.58l-1.29,7.27-8.17,9.33c-2.97,3.41-4.88,5.28-7.59,7.56l-.04.13h13.13l-1.77,9.01h-26.15l1.19-6.87Z"/><path class="cls-2" d="M575.46,270.19c0-4.05,3.02-7.67,7.19-7.67,3.75,0,6.21,2.61,6.21,6.44,0,4.57-3.19,7.56-7.32,7.56-3.76,0-6.08-2.64-6.08-6.33Z"/><path class="cls-2" d="M636.47,274.97c-2.09.9-5.58,1.56-10.38,1.56-12.38,0-18.78-8.5-18.78-18.31,0-11.3,4.68-19.24,11.22-23.82,4.53-3.28,9.88-4.72,15.81-4.72,4.15,0,7.53.93,8.68,1.55l-2.95,9.19c-1.09-.44-3.49-1.1-6.8-1.1-3.1,0-6.14,1.1-8.36,3.09-3.31,2.99-5.59,7.86-5.59,14.29s3.44,10.23,9.6,10.23c2.66,0,5.26-.41,7.12-1.14l.42,9.18Z"/><path class="cls-2" d="M674.6,255.11c0,12.44-8.01,21.48-19.19,21.48-8.77,0-13.55-5.76-13.55-13.14,0-11.86,7.8-21.53,19.41-21.53,8.99,0,13.33,6.28,13.33,13.18ZM653.17,263.22c0,2.82,1.06,5,3.69,5,4.28,0,6.44-8.27,6.44-13.44,0-2.44-.97-4.5-3.58-4.5-4.37,0-6.58,8.44-6.55,12.93Z"/><path class="cls-2" d="M676.55,275.9l4.12-22.17c.78-4.16,1.33-7.95,1.8-11.12h9.45l-.41,4.83h.1c2.77-3.83,6.49-5.52,10.62-5.52,4.71,0,6.88,2.99,7.25,5.52,2.71-3.67,6.59-5.52,10.59-5.52,5.26,0,7.6,3.44,7.6,8.58,0,1.32-.3,4.13-.67,6.12l-3.62,19.28h-10.77l3.37-18.16c.27-1.5.47-2.92.47-4.2,0-1.61-.79-2.78-2.3-2.78-2.42,0-4.84,3.56-6.05,9.98l-2.89,15.16h-10.64l3.41-18.16c.27-1.41.47-2.79.47-3.96,0-1.82-.62-3.02-2.12-3.02-2.43,0-5.08,3.69-6.23,9.98l-2.79,15.16h-10.77Z"/><path class="cls-2" d="M764.41,255.11c0,12.44-8.01,21.48-19.19,21.48-8.77,0-13.55-5.76-13.55-13.14,0-11.86,7.8-21.53,19.41-21.53,8.99,0,13.33,6.28,13.33,13.18ZM742.97,263.22c0,2.82,1.06,5,3.69,5,4.28,0,6.44-8.27,6.44-13.44,0-2.44-.97-4.5-3.58-4.5-4.37,0-6.58,8.44-6.55,12.93Z"/><path class="cls-2" d="M816.47,228.22l-6.62,34.75c-.82,4.26-1.4,8.92-1.66,12.93h-9.83l.33-4.84h-.14c-2.63,4.02-6.42,5.53-9.69,5.53-5.25,0-9.66-4.16-9.66-12.08,0-11.56,7.6-22.58,19.8-22.58,1.08,0,2.42.2,3.62.64l2.78-14.35h11.05ZM801.17,251.15c-.58-.52-1.66-.9-2.76-.9-4.73,0-7.83,7.12-7.83,12.34,0,3.6,1.53,5.05,3.43,5.05,2.04,0,4.23-2.19,5.32-6.98l1.83-9.52Z"/><path class="cls-2" d="M842.2,274.16c-4.07,1.89-8.61,2.36-12.24,2.36-9.48,0-14.24-5.2-14.24-13.89,0-10.09,6.76-20.71,18.89-20.71,6.84,0,11.53,4.13,11.56,10.35,0,8.69-7.52,12.11-19.95,11.7.11.81.45,1.65,1.16,2.32,1.13,1.02,2.98,1.69,5.46,1.69,3.27,0,6.08-.64,8.78-1.91l.58,8.08ZM833.28,250.16c-3.64,0-5.64,3.11-6.04,5.77,6.15.13,8.78-1.1,8.78-3.38,0-1.37-.96-2.38-2.73-2.38Z"/><path class="cls-2" d="M861.12,242.61l.4,13.03c.09,4.44.3,6.67.39,9.62h.21c.92-2.85,1.85-5.22,3.51-9.48l5.15-13.17h12.04l-17.48,33.29h-11.29l-4.45-33.29h11.52Z"/><path class="cls-2" d="M907.57,274.16c-4.07,1.89-8.61,2.36-12.24,2.36-9.48,0-14.24-5.2-14.24-13.89,0-10.09,6.76-20.71,18.89-20.71,6.84,0,11.53,4.13,11.56,10.35,0,8.69-7.52,12.11-19.95,11.7.11.81.45,1.65,1.16,2.32,1.13,1.02,2.98,1.69,5.46,1.69,3.27,0,6.08-.64,8.78-1.91l.58,8.08ZM898.66,250.16c-3.64,0-5.64,3.11-6.04,5.77,6.15.13,8.78-1.1,8.78-3.38,0-1.37-.96-2.38-2.73-2.38Z"/><path class="cls-2" d="M926,266.44c1.85.89,5.07,2.1,8.15,2.07,2.24-.03,3.25-1,3.25-2.27s-.93-2.22-3.71-3.73c-3.61-1.97-6.47-4.81-6.47-8.72,0-7.04,6.07-11.86,14.94-11.86,3.93,0,6.83.72,8.48,1.61l-2.46,7.78c-1.34-.61-3.53-1.3-6.12-1.3-2.26,0-3.74.8-3.74,2.33,0,1.04,1.1,1.99,3.37,3.14,3.77,2.15,7.1,4.9,7.1,9.08,0,7.73-6.34,11.96-15.52,11.96-4.1,0-7.95-1.06-9.83-2.41l2.58-7.68Z"/><path class="cls-2" d="M979.31,274.16c-4.07,1.89-8.61,2.36-12.24,2.36-9.48,0-14.24-5.2-14.24-13.89,0-10.09,6.76-20.71,18.89-20.71,6.84,0,11.53,4.13,11.56,10.35,0,8.69-7.52,12.11-19.95,11.7.11.81.45,1.65,1.16,2.32,1.13,1.02,2.98,1.69,5.46,1.69,3.27,0,6.08-.64,8.78-1.91l.58,8.08ZM970.39,250.16c-3.64,0-5.64,3.11-6.04,5.77,6.15.13,8.78-1.1,8.78-3.38,0-1.37-.96-2.38-2.73-2.38Z"/><path class="cls-2" d="M984.41,275.9l3.83-20.18c.89-4.76,1.33-10.15,1.72-13.11h9.52c-.14,2.08-.27,4.16-.47,6.24h.24c2.46-4.33,6.01-6.92,10-6.92.64,0,1.22.03,1.8.1l-2.14,10.84c-.41-.03-1.04-.06-1.58-.06-5.76,0-8.4,4.8-9.52,10.8l-2.32,12.31h-11.08Z"/></svg>